<svg width="3065" height="638" viewBox="0 0 3065 638" fill="none" xmlns="http://www.w3.org/2000/svg">
<path d="M1528.87 299.702C1528.87 296.477 1529.47 294.873 1530.71 294.873C1531.93 294.873 1534.08 296.477 1537.14 299.702C1538.98 301.699 1542.35 305.685 1547.26 311.66C1559.68 326.696 1569.95 338.187 1578.08 346.159C1592.64 359.951 1606.83 369.462 1620.63 374.676C1626.29 376.82 1633.19 378.506 1641.32 379.734C1649.45 380.962 1657.56 381.576 1665.7 381.576C1676.73 381.576 1685.93 380.503 1693.29 378.351C1701.57 375.903 1706.48 372.376 1708.02 367.776C1708.32 366.851 1708.47 366.016 1708.47 365.247C1708.47 360.491 1703.49 354.975 1693.52 348.689C1687.23 344.703 1674.82 338.269 1656.27 329.372C1632.66 317.872 1614.88 308.599 1602.91 301.544C1582.22 289.438 1565.89 277.013 1553.94 264.286C1539.06 248.653 1530.09 232.021 1527.02 214.382C1526.57 211.477 1526.34 208.326 1526.34 204.953C1526.34 192.848 1529.09 181.037 1534.61 169.537C1541.51 155.287 1551.71 144.017 1565.21 135.734C1581.45 125.773 1601.77 120.788 1626.14 120.788H1628.44L1748.71 121.476L1747.79 188.395C1744.27 192.234 1740.59 194.149 1736.76 194.149C1732.77 194.149 1728.09 191.849 1722.73 187.25C1719.51 184.491 1714.29 179.122 1707.09 171.15C1699.27 162.417 1693.14 155.975 1688.69 151.833C1681.02 144.786 1673.52 139.417 1666.16 135.734C1657.26 131.134 1648.07 128.687 1638.56 128.375H1631.43C1620.4 128.375 1610.89 129.456 1602.91 131.6C1591.26 134.973 1584.6 140.415 1582.91 147.929C1582.6 149.304 1582.45 150.606 1582.45 151.833C1582.45 158.578 1585.97 165.257 1593.03 171.846C1599.01 177.362 1608.13 183.263 1620.4 189.549C1627.9 193.536 1640.4 199.437 1657.88 207.253C1682.26 218.295 1700.19 227.036 1711.69 233.47C1731.01 244.356 1745.64 255.315 1755.61 266.357C1767.73 279.854 1773.78 294.414 1773.78 310.056C1773.78 322.325 1770.1 335.429 1762.74 349.376C1756.15 361.645 1745.95 371.303 1732.15 378.351C1714.83 387.092 1692.52 391.463 1665.24 391.463H1653.73C1629.21 391.463 1603.45 388.394 1576.47 382.263C1553.47 376.591 1537.61 371.533 1528.87 367.08V299.702Z" fill="#010202"/>
<path d="M1984.66 132.287C1983.43 132.14 1982.13 132.058 1980.76 132.058C1964.2 132.058 1949.93 138.884 1937.98 152.52C1927.09 164.487 1918.73 180.963 1912.91 201.965C1907.54 221.134 1904.86 241.523 1904.86 263.139C1904.86 279.542 1906.47 294.643 1909.69 308.443C1913.07 322.701 1917.74 333.824 1923.71 341.788C1930.16 350.521 1937.67 354.892 1946.26 354.892H1948.1C1958.83 353.976 1967.33 350.685 1973.63 345.005C1981.13 338.105 1984.89 328.218 1984.89 315.343L1984.66 132.287ZM1983.95 471.061L1984.2 346.159C1979.6 358.428 1972.55 367.931 1963.04 374.675C1949.7 384.333 1931.54 389.162 1908.54 389.162H1904.86C1883.71 388.704 1865 383.335 1848.75 373.063C1832.96 363.102 1820.69 349.146 1811.96 331.205C1803.22 312.969 1798.85 291.967 1798.85 268.198C1798.85 258.54 1799.62 248.497 1801.15 238.069C1803.91 219.064 1810.8 201.278 1821.85 184.72C1834.11 166.017 1850.13 151.219 1869.91 140.333C1892.6 128.072 1918.73 121.786 1948.33 121.475H1963.5C1973.32 121.475 1984.66 121.557 1997.54 121.712C2012.56 121.86 2026.44 123.931 2039.16 127.917C2055.87 132.975 2069.05 140.947 2078.71 151.833C2090.37 165.174 2096.2 182.273 2096.2 203.12L2096.15 471.061H1983.95Z" fill="#F3F3F3"/>
<path d="M2323.17 151.603C2333.44 139.801 2348.08 131.673 2367.09 127.229C2379.82 124.159 2395.76 122.629 2414.92 122.629H2415.16V300.626C2414.85 321.628 2407.49 339.185 2393.08 353.288C2380.35 365.704 2362.8 375.06 2340.42 381.346C2320.95 386.707 2299.26 389.391 2275.34 389.391C2251.57 389.391 2229.88 386.707 2210.25 381.346C2187.88 375.06 2170.39 365.704 2157.83 353.288C2143.26 339.185 2135.9 321.628 2135.75 300.626V122.629H2138.05C2151.08 122.629 2162.19 123.398 2171.4 124.929C2184.73 126.926 2196.08 130.601 2205.43 135.962C2216.92 142.404 2225.74 151.219 2231.88 162.416C2238.92 175.446 2242.45 191.767 2242.45 211.394C2242.45 218.147 2242.76 229.949 2243.37 246.81C2244.29 266.896 2244.75 281.924 2244.75 291.885C2244.91 310.743 2245.45 324.845 2246.36 334.2C2247.74 348.303 2250.51 358.886 2254.64 365.933C2259.39 374.216 2266.29 378.35 2275.34 378.35C2284.54 378.35 2291.59 374.061 2296.5 365.475C2300.48 358.272 2303.17 347.534 2304.54 333.284C2305.47 323.773 2305.93 309.359 2305.93 290.043C2305.93 279.926 2305.53 264.973 2304.77 245.206C2304.16 229.098 2303.86 217.836 2303.86 211.394C2303.86 185.947 2310.29 166.017 2323.17 151.603Z" fill="#010202"/>
<path d="M2560.49 140.796C2554.97 145.248 2552.21 150.609 2552.21 156.895C2552.21 160.267 2553.05 163.337 2554.74 166.095C2556.58 168.853 2559.04 170.769 2562.11 171.841C2571.45 175.213 2578.58 179.739 2583.49 185.411C2588.24 190.781 2590.61 196.756 2590.61 203.353C2590.61 209.942 2588.24 216.457 2583.49 222.898C2581.34 225.657 2577.74 229.716 2572.68 235.086C2565.01 243.058 2559.72 249.573 2556.81 254.631C2551.9 263.062 2549.45 272.491 2549.45 282.918V283.147C2549.45 292.961 2551.37 302.464 2555.21 311.664C2559.18 321.174 2564.55 328.762 2571.3 334.434C2578.5 340.565 2586.55 343.634 2595.45 343.634C2602.8 343.634 2610.32 341.481 2617.98 337.192V188.17C2617.83 174.067 2617.37 164.327 2616.6 158.966C2615.53 150.077 2613.07 143.554 2609.24 139.412C2604.8 134.821 2598.05 132.521 2589 132.521H2587.17C2575.67 132.668 2566.78 135.434 2560.49 140.796ZM2499.78 153.212C2510.05 144.479 2522.48 137.35 2537.04 131.825C2552.37 125.85 2568.16 122.478 2584.41 121.708C2591.92 121.406 2599.05 121.25 2605.8 121.25C2632.32 121.25 2654.24 124.008 2671.56 129.533C2687.51 134.583 2700 142.179 2709.05 152.295C2716.87 161.192 2722.39 172.528 2725.61 186.328C2728.21 197.37 2729.52 211.546 2729.52 228.873V229.798L2729.05 322.468V323.393C2729.05 333.509 2730.51 342.251 2733.42 349.609C2736.8 358.342 2741.55 362.713 2747.69 362.713C2748.91 362.713 2750.21 362.484 2751.6 362.025C2752.2 361.878 2752.81 361.796 2753.44 361.796C2755.12 361.796 2755.97 362.484 2755.97 363.867C2755.97 364.939 2755.27 365.938 2753.9 366.854C2743.47 374.213 2731.89 379.885 2719.17 383.871C2707.21 387.399 2695.18 389.166 2683.06 389.166C2665.43 389.166 2650.79 385.483 2639.14 378.125C2626.73 370.308 2620.13 359.725 2619.36 346.392C2612.16 358.039 2600.97 367.771 2585.79 375.596C2568.77 384.182 2550.15 388.471 2529.91 388.471H2525.31C2507.06 388.168 2491.73 384.256 2479.32 376.75C2468.43 369.997 2460.23 360.798 2454.7 349.15C2449.96 339.026 2447.58 327.993 2447.58 316.034C2447.58 303.773 2449.88 293.117 2454.48 284.064C2459.54 273.948 2467.28 264.903 2477.7 256.931C2485.98 250.49 2496.41 244.515 2508.99 238.99C2516.19 235.929 2526.69 232.016 2540.49 227.261C2553.21 223.119 2562.64 219.141 2568.77 215.303C2573.83 211.939 2576.36 207.945 2576.36 203.353C2576.36 197.672 2572.83 192.696 2565.78 188.399C2558.42 183.799 2549.37 181.499 2538.65 181.499C2524.08 181.499 2509.52 185.796 2494.95 194.374C2492.8 196.068 2490.58 196.911 2488.29 196.911C2485.68 196.911 2483.45 195.839 2481.62 193.686C2479.93 191.697 2479.09 189.086 2479.09 185.87C2479.09 183.873 2479.46 181.81 2480.23 179.666C2482.99 170.613 2489.51 161.806 2499.78 153.212Z" fill="#010202"/>
<path d="M2946.84 184.491C2943 177.591 2938.1 171.919 2932.12 167.474C2926.14 163.03 2920.39 160.804 2914.87 160.804C2912.88 160.804 2911.04 161.115 2909.35 161.72C2900.31 164.945 2893.41 173.76 2888.65 188.166C2884.21 201.049 2881.98 216.993 2881.98 236.006C2881.98 253.792 2883.9 271.112 2887.74 287.972C2891.88 305.611 2897.4 319.64 2904.3 330.059C2911.96 341.715 2920.54 347.542 2930.04 347.542C2937.41 347.542 2945.15 343.785 2953.27 336.272V206.565C2953.13 199.207 2950.97 191.849 2946.84 184.491ZM3064.35 388.475C3056.84 389.081 3049.63 389.392 3042.73 389.392C3013.45 389.392 2990.83 384.415 2974.9 374.446C2961.7 366.163 2954.8 355.588 2954.2 342.705C2953.27 349.76 2949.52 356.742 2942.93 363.634C2936.18 370.992 2927.67 376.901 2917.41 381.346C2906.05 386.249 2894.1 388.704 2881.53 388.704C2879.38 388.704 2877.24 388.622 2875.09 388.475C2854.54 387.092 2836.23 380.879 2820.13 369.846C2805.26 359.729 2793.3 346.314 2784.26 329.601C2775.67 313.657 2770.46 296.485 2768.61 278.085C2768 270.579 2767.7 263.139 2767.7 255.781C2767.7 229.868 2771.91 206.721 2780.34 186.332C2788.93 166.091 2801.12 150.302 2816.91 138.958C2833.31 127.155 2852.39 121.099 2874.17 120.788H2875.78C2892.03 120.788 2905.67 123.775 2916.71 129.758C2925.91 134.669 2933.65 141.798 2939.94 151.145C2943.93 157.12 2948.37 165.944 2953.27 177.591V99.6296C2953.27 68.355 2964.4 46.3622 2986.62 33.6347C3001.96 24.8932 3022.88 20.5225 3049.41 20.5225C3053.85 20.5225 3058.83 20.6043 3064.35 20.7516V388.475Z" fill="#010202"/>
<path d="M1402.05 117.325V123.644L1263.41 382.876H1265.04C1274.79 382.876 1287.78 379.627 1304.03 373.128C1313.42 369.281 1327.61 362.66 1346.63 353.271C1359.27 346.895 1368.18 342.557 1373.35 340.274C1381.89 336.664 1388.09 334.855 1391.95 334.855C1395.79 334.855 1397.72 336.664 1397.72 340.274L1397.54 388.475L1161.96 387.566L1162.32 379.627L1299.88 123.104H1298.43C1290.01 123.104 1279.18 125.993 1265.94 131.763C1258.11 135.136 1246.44 141.094 1230.92 149.639C1219.48 155.901 1211.36 160.173 1206.55 162.457C1198.72 166.066 1192.83 167.875 1188.85 167.875C1183.56 167.875 1180.91 164.74 1180.91 158.479L1180.55 117.865L1402.05 117.325Z" fill="#010202"/>
<path d="M1626.14 119.973C1601.41 119.973 1582.39 125.681 1565.27 135.193C1551.95 144.705 1542.44 156.119 1534.83 169.436C1529.12 180.85 1527.22 192.264 1527.22 205.581C1527.22 207.483 1527.22 211.288 1527.22 215.093C1531.02 232.215 1538.63 249.336 1553.85 264.555C1565.27 277.872 1582.39 289.286 1603.32 300.701C1614.73 308.31 1631.85 317.822 1656.58 329.237C1675.61 338.749 1687.02 344.456 1692.73 348.261C1704.14 355.87 1707.95 359.675 1707.95 365.382C1706.04 371.089 1702.24 376.796 1692.73 378.699C1685.12 380.601 1677.51 382.504 1666.09 382.504C1658.48 382.504 1648.97 380.601 1641.36 380.601C1633.75 378.699 1626.14 376.796 1620.44 374.894C1607.12 369.187 1591.9 359.675 1578.58 346.358C1569.07 338.749 1559.56 327.334 1548.15 312.115C1542.44 306.408 1538.63 302.603 1536.73 298.798C1534.83 296.896 1531.02 294.994 1531.02 294.994C1529.12 294.994 1529.12 296.896 1529.12 298.798V367.285C1536.73 371.089 1553.85 376.796 1576.68 382.504C1603.32 388.211 1629.95 392.016 1654.68 392.016H1666.09C1692.73 392.016 1715.56 386.308 1732.68 378.699C1745.99 371.089 1755.51 361.577 1763.12 350.163C1770.73 334.944 1774.53 321.627 1774.53 310.213C1774.53 294.994 1766.92 279.774 1755.51 266.458C1745.99 255.043 1730.78 243.629 1711.75 234.117C1700.34 226.507 1681.31 218.898 1658.48 207.483C1639.46 199.874 1628.05 194.167 1620.44 190.362C1609.02 182.752 1599.51 177.045 1593.8 171.338C1586.19 165.631 1582.39 158.021 1582.39 152.314C1582.39 150.412 1582.39 148.509 1582.39 148.509C1584.29 140.9 1591.9 135.193 1603.32 131.388C1610.93 129.485 1620.44 127.583 1631.85 127.583H1639.46C1648.97 129.485 1656.58 131.388 1666.09 135.193C1673.7 138.997 1681.31 144.705 1688.92 152.314C1692.73 156.119 1719.36 184.655 1723.17 186.557C1728.87 192.264 1732.68 194.167 1736.48 194.167C1740.29 194.167 1744.09 192.264 1747.9 188.46V121.876L1626.14 119.973Z" fill="url(#paint0_linear_176_8)"/>
<path d="M1947.65 122.269C1919.11 122.269 1892.48 127.976 1869.65 139.391C1850.63 150.805 1833.5 166.024 1822.09 185.048C1810.68 202.17 1803.07 219.291 1801.16 238.315C1799.26 247.827 1799.26 259.242 1799.26 268.754C1799.26 291.582 1803.07 312.509 1812.58 331.533C1820.19 348.654 1833.5 363.873 1848.72 373.385C1865.85 382.897 1882.97 388.604 1905.8 388.604C1930.53 388.604 1949.55 384.8 1962.87 375.288C1972.38 367.678 1979.99 358.166 1983.79 346.752V470.407H2096.04V202.17C2096.04 183.146 2090.33 166.024 2078.91 152.708C2069.4 141.293 2056.08 133.684 2038.96 127.976C2025.65 124.172 2012.33 122.269 1997.11 122.269C1983.79 122.269 1947.65 122.269 1947.65 122.269ZM1922.92 341.044C1917.21 333.435 1913.41 322.021 1909.6 308.704C1905.8 295.387 1905.8 280.168 1905.8 263.046C1905.8 242.12 1907.7 221.194 1913.41 202.17C1919.11 181.243 1926.72 164.122 1938.14 152.708C1949.55 139.391 1964.77 131.781 1979.99 131.781C1981.89 131.781 1983.79 131.781 1983.79 131.781L1985.7 314.411C1985.7 327.728 1981.89 337.24 1974.28 344.849C1966.67 350.556 1959.06 354.361 1947.65 354.361C1940.04 354.361 1930.53 350.556 1922.92 341.044Z" fill="url(#paint1_linear_176_8)"/>
<path d="M2415.64 123.557C2396.61 123.557 2379.49 123.557 2366.17 127.362C2347.15 131.167 2333.83 140.679 2322.42 152.093C2311.01 165.41 2303.4 186.336 2303.4 211.067C2303.4 218.677 2305.3 279.553 2305.3 290.968C2305.3 309.992 2305.3 323.308 2305.3 332.82C2303.4 348.039 2299.59 357.551 2295.79 365.161C2291.98 374.673 2284.37 378.478 2274.86 378.478C2265.35 378.478 2259.64 374.673 2253.93 365.161C2250.13 359.454 2248.23 348.039 2246.32 334.723C2246.32 325.211 2244.42 309.992 2244.42 290.968C2244.42 281.456 2244.42 266.237 2242.52 247.213C2242.52 230.091 2242.52 218.677 2242.52 211.067C2242.52 192.043 2238.71 174.922 2231.1 161.605C2225.4 152.093 2217.79 142.581 2206.37 136.874C2196.86 131.167 2185.45 127.362 2172.13 125.459C2162.62 123.557 2151.2 123.557 2137.89 123.557L2135.99 300.48C2135.99 321.406 2143.59 338.527 2156.91 353.747C2170.23 365.161 2187.35 374.673 2210.18 382.283C2229.2 386.087 2252.03 389.892 2274.86 389.892C2299.59 389.892 2320.52 386.087 2339.54 382.283C2362.37 374.673 2379.49 365.161 2392.81 353.747C2408.03 338.527 2415.64 321.406 2415.64 300.48V123.557Z" fill="url(#paint2_linear_176_8)"/>
<path d="M2584.95 121.945C2567.83 121.945 2552.61 125.75 2537.39 131.457C2522.17 137.164 2510.76 144.773 2499.34 152.383C2489.83 161.895 2482.22 171.407 2480.32 179.017C2480.32 180.919 2478.42 184.724 2478.42 186.626C2478.42 188.529 2480.32 192.333 2482.22 194.236C2484.12 196.138 2486.03 196.138 2487.93 196.138C2489.83 196.138 2493.63 196.138 2495.54 194.236C2508.85 186.626 2524.07 180.919 2539.29 180.919C2548.8 180.919 2558.32 184.724 2565.93 188.529C2573.54 192.333 2575.44 198.04 2575.44 203.748C2575.44 207.552 2573.54 211.357 2567.83 215.162C2562.12 218.967 2552.61 222.772 2541.19 226.576C2525.98 232.284 2516.46 236.088 2508.85 239.893C2495.54 243.698 2486.03 251.307 2478.42 257.015C2467 264.624 2459.39 274.136 2453.68 283.648C2449.88 293.16 2447.98 304.574 2447.98 315.989C2447.98 327.403 2449.88 338.818 2455.59 348.33C2459.39 361.646 2468.9 369.256 2478.42 376.865C2491.73 384.475 2506.95 388.28 2525.98 388.28H2529.78C2550.71 388.28 2567.83 384.475 2584.95 374.963C2600.17 367.353 2611.58 357.842 2619.19 346.427C2619.19 359.744 2626.8 371.158 2638.22 378.768C2651.53 386.377 2664.85 388.28 2683.87 388.28C2695.29 388.28 2706.7 388.28 2720.02 384.475C2731.43 380.67 2742.85 374.963 2754.26 367.353C2756.17 365.451 2756.17 365.451 2756.17 363.549C2756.17 361.646 2754.26 361.646 2754.26 361.646C2752.36 361.646 2748.56 363.549 2748.56 363.549C2740.95 363.549 2737.14 357.842 2733.34 350.232C2731.43 342.622 2729.53 333.11 2729.53 323.598V228.479C2729.53 211.357 2727.63 198.04 2725.73 186.626C2721.92 173.309 2716.22 161.895 2708.61 152.383C2699.09 142.871 2687.68 135.261 2672.46 129.554C2653.44 123.847 2632.51 121.945 2605.88 121.945C2598.27 121.945 2592.56 121.945 2584.95 121.945ZM2571.63 335.013C2564.02 329.306 2558.32 321.696 2554.51 312.184C2550.71 302.672 2548.8 293.16 2548.8 283.648C2548.8 272.234 2552.61 262.722 2556.41 255.112C2560.22 249.405 2565.93 243.698 2573.54 234.186C2577.34 230.381 2581.15 226.576 2583.05 222.772C2588.75 217.064 2590.66 209.455 2590.66 203.748C2590.66 196.138 2588.75 190.431 2583.05 184.724C2579.24 179.017 2571.63 175.212 2562.12 171.407C2558.32 171.407 2556.41 169.505 2554.51 165.7C2552.61 163.797 2552.61 159.993 2552.61 156.188C2552.61 150.481 2554.51 144.773 2560.22 140.969C2565.93 135.262 2575.44 133.359 2586.85 133.359C2596.36 133.359 2603.97 135.261 2609.68 139.066C2613.49 142.871 2615.39 150.481 2617.29 158.09C2617.29 163.797 2617.29 173.309 2617.29 188.529V336.915C2609.68 340.72 2602.07 344.525 2596.36 344.525C2586.85 344.525 2579.24 340.72 2571.63 335.013Z" fill="url(#paint3_linear_176_8)"/>
<path d="M2986.36 32.857C2963.53 46.1737 2954.01 69.0024 2954.01 99.4407V177.439C2948.31 166.024 2944.5 156.513 2940.7 150.805C2933.09 141.293 2925.48 135.586 2915.97 129.879C2906.45 124.172 2891.24 120.367 2876.02 120.367H2874.11C2853.19 120.367 2834.16 127.977 2817.04 139.391C2801.82 150.805 2788.51 166.024 2780.9 186.951C2771.38 205.975 2767.58 230.706 2767.58 255.437C2767.58 263.047 2767.58 270.656 2769.48 278.266C2771.38 297.29 2775.19 314.411 2784.7 329.63C2794.21 346.752 2805.63 360.069 2820.85 369.581C2836.07 380.995 2855.09 386.702 2876.02 388.604H2881.72C2895.04 388.604 2906.45 386.702 2917.87 380.995C2927.38 377.19 2936.89 371.483 2942.6 363.873C2950.21 356.264 2954.01 350.557 2954.01 342.947C2954.01 356.264 2961.62 365.776 2974.94 375.288C2990.16 384.8 3012.99 388.604 3043.43 388.604C3049.13 388.604 3056.74 388.604 3064.35 388.604V21.4426C3058.65 21.4426 3052.94 21.4426 3049.13 21.4426C3022.5 21.4426 3001.57 25.2474 2986.36 32.857ZM2904.55 329.63C2896.94 320.118 2891.24 304.899 2887.43 287.778C2883.63 270.656 2881.72 253.535 2881.72 236.413C2881.72 217.389 2883.63 200.268 2889.33 188.853C2893.14 173.634 2900.75 164.122 2910.26 162.22L2914.06 160.317C2919.77 160.317 2925.48 162.22 2931.19 167.927C2938.8 171.732 2942.6 177.439 2946.41 185.048C2950.21 192.658 2954.01 198.365 2954.01 205.975V335.337C2944.5 342.947 2936.89 346.752 2929.28 346.752C2919.77 346.752 2912.16 341.045 2904.55 329.63Z" fill="url(#paint4_linear_176_8)"/>
<path d="M1180.98 117.321V159.173C1180.98 164.88 1182.89 168.685 1188.59 168.685C1192.4 168.685 1198.11 166.783 1205.72 162.978C1211.42 161.076 1219.03 155.368 1230.45 149.661C1245.67 140.149 1258.98 134.442 1266.59 132.54C1279.91 126.833 1289.42 123.028 1298.93 123.028L1161.96 379.851V387.46L1397.86 389.363V339.901C1397.86 336.096 1395.95 334.193 1392.15 334.193C1388.34 334.193 1382.64 336.096 1373.13 339.901C1367.42 341.803 1359.81 347.51 1346.49 353.217C1327.47 362.729 1314.15 368.436 1304.64 372.241C1287.52 379.851 1274.2 383.656 1264.69 383.656H1262.79L1401.66 123.028V117.321H1180.98Z" fill="url(#paint5_linear_176_8)"/>
<path d="M624.849 0.566949L257.386 3.12322C254.19 3.12322 250.995 3.12322 247.161 3.12322C148.105 4.40135 79.086 37.6328 33.7123 105.374C-8.46608 173.754 -16.1349 257.472 40.103 323.935C89.3111 265.14 102.731 212.737 81.6423 155.221C68.861 170.559 57.9968 187.174 47.1327 204.429C36.2686 134.132 73.3344 49.136 201.787 47.8579L504.704 45.3016C467.638 104.735 390.95 230.631 352.606 291.981C449.106 291.981 465.721 293.898 491.284 255.554C525.154 199.956 603.76 70.8643 632.518 22.9343C635.713 17.8217 638.908 12.0701 638.908 6.95761C638.908 3.12321 632.518 0.566949 624.849 0.566949Z" fill="url(#paint6_linear_176_8)"/>
<path d="M811.841 -7.94675e-05C700.791 4.23847 632.126 70.3598 638.908 157.674C643.994 222.1 678.751 276.353 771.999 341.627L799.125 361.124L810.993 368.754C881.353 418.769 895.764 454.373 899.155 493.367C907.632 603.57 783.867 636.63 701.639 611.199C692.314 607.808 681.294 601.874 671.969 595.092C670.273 593.397 668.578 592.549 666.883 590.854C657.558 584.072 649.081 575.595 643.147 567.966C625.345 547.621 605.847 520.494 599.066 500.149C617.715 517.103 635.517 530.666 650.776 541.687C675.36 474.718 640.604 401.815 586.35 376.383C538.878 437.418 562.614 521.342 613.477 575.595H434.61L433.762 574.747L427.828 567.966L407.483 548.468H444.783C450.717 548.468 455.803 543.382 455.803 537.448C455.803 531.514 450.717 526.428 444.783 526.428H385.443L368.489 509.474C376.118 499.301 381.204 487.433 382.9 475.565H406.636L448.173 517.103C452.412 521.342 459.194 521.342 464.28 517.103C467.671 512.865 467.671 506.083 464.28 501.844L438.001 475.565H474.452C480.386 475.565 485.473 470.479 485.473 464.545C485.473 458.611 480.386 453.525 474.452 453.525H437.153L463.432 428.094C467.671 423.855 467.671 416.226 464.28 411.987C459.194 407.748 452.412 407.748 448.173 411.987L406.636 453.525H382.9C381.204 441.657 376.118 430.637 368.489 420.464L385.443 402.662H444.783C450.717 402.662 455.803 398.424 455.803 391.642C455.803 385.708 450.717 381.469 444.783 381.469H407.483L433.762 355.19C438.001 350.952 438.001 344.17 433.762 339.932C429.524 335.693 422.742 335.693 418.504 339.932L392.225 366.211V328.911C392.225 322.977 387.138 317.891 381.204 317.891C375.27 317.891 370.184 322.977 370.184 328.911V387.403L353.23 405.205C343.057 397.576 331.189 392.49 319.321 390.794V366.211L360.859 324.673C365.098 320.434 365.098 313.653 360.859 309.414C356.621 305.176 349.839 305.176 345.6 309.414L319.321 335.693V298.394C319.321 292.46 315.083 288.221 308.301 288.221C302.367 288.221 298.129 292.46 298.129 298.394V335.693L271.85 309.414C267.611 305.176 260.829 305.176 256.591 309.414C252.352 313.653 252.352 320.434 256.591 324.673L298.129 366.211V390.794C286.261 392.49 274.393 397.576 264.22 405.205L247.266 387.403V328.911C247.266 322.977 242.18 317.891 236.246 317.891C230.312 317.891 225.226 322.977 225.226 328.911V366.211L198.947 339.932C194.708 335.693 187.926 335.693 183.688 339.932C181.992 341.627 181.145 343.323 180.297 345.866V347.561C180.297 350.104 181.145 352.647 183.688 355.19L209.967 381.469H172.668C166.734 381.469 161.647 385.708 161.647 391.642C161.647 398.424 166.734 402.662 172.668 402.662H231.16L248.962 420.464C241.332 430.637 236.246 441.657 235.398 453.525H210.815L169.277 411.987C165.038 407.748 158.257 407.748 153.17 411.987C149.779 416.226 149.779 423.855 153.17 427.246L179.449 453.525H142.998C137.064 453.525 131.978 458.611 131.978 464.545C131.978 470.479 137.064 475.565 142.998 475.565H179.449L153.17 501.844C149.779 506.083 149.779 512.865 153.17 517.103C158.257 521.342 165.038 521.342 169.277 517.103L210.815 475.565H235.398C235.398 480.652 237.094 486.586 238.789 491.672L246.418 484.042C239.637 462.002 245.571 436.571 262.525 418.769C287.956 394.185 328.646 394.185 354.078 418.769C379.509 444.2 379.509 485.738 354.078 511.169C337.123 528.123 311.692 533.21 289.652 526.428L282.022 534.057C287.108 536.6 292.195 537.448 298.129 538.296V562.879L292.195 567.966L285.413 575.595H229.464L288.804 516.255C308.301 523.885 331.189 519.646 347.296 503.54C361.707 489.129 366.793 468.784 361.707 450.982L321.017 491.672L297.281 484.042L291.347 482.347L282.87 455.22L282.022 452.677L322.712 411.987C304.063 406.901 283.718 411.987 269.307 426.398C254.896 440.809 250.657 462.85 255.743 481.499L172.668 568.813L170.124 570.509L139.607 602.722V619.676H166.734C179.449 620.524 191.317 620.524 202.337 620.524C219.292 620.524 233.703 620.524 244.723 620.524C247.266 620.524 257.439 620.524 259.134 620.524C263.373 620.524 293.89 620.524 299.824 620.524C307.454 620.524 315.083 620.524 322.712 620.524C329.494 620.524 335.428 620.524 341.362 621.371C350.687 621.371 360.859 621.371 370.184 621.371C376.118 621.371 391.377 621.371 391.377 621.371C486.32 622.219 579.568 623.915 678.751 622.219C712.659 636.63 749.958 640.021 785.562 636.63C832.186 631.544 883.049 614.59 915.262 590.006C969.515 550.164 983.078 494.215 978.84 448.439C972.906 372.992 934.759 318.739 833.034 250.074L809.298 233.968C738.938 186.496 718.593 159.369 716.05 122.918C711.811 74.5984 744.872 38.9946 804.212 37.2992C855.922 35.6038 881.353 58.4919 894.069 72.903C912.719 93.2481 918.652 117.832 918.652 124.613C919.5 133.938 922.043 139.024 927.977 139.024C934.759 138.177 936.454 132.243 934.759 114.441C930.52 52.5579 931.368 29.6698 930.52 18.6496C930.52 13.5633 926.282 11.0202 918.652 10.1725C900.003 5.93391 871.181 -7.94675e-05 829.643 -7.94675e-05C823.709 -7.94675e-05 817.775 -7.94675e-05 811.841 -7.94675e-05ZM319.321 562.879V538.296C331.189 536.6 343.057 532.362 353.23 524.732L370.184 541.687V575.595H345.6H332.037L319.321 562.879ZM392.225 563.727L404.092 575.595H392.225V563.727Z" fill="url(#paint7_linear_176_8)"/>
<path d="M1245.64 592.093C1244.97 601.972 1241.14 609.822 1234.15 615.649C1227.16 621.469 1218.04 624.383 1206.8 624.383C1193.85 624.383 1183.78 620.372 1176.6 612.343C1169.41 604.313 1165.82 593.059 1165.82 578.58C1165.82 563.773 1169.48 552.437 1176.81 544.563C1184.13 536.698 1194.66 532.761 1208.4 532.761C1219.57 532.761 1228.4 535.47 1234.87 540.88C1241.35 546.29 1244.89 553.935 1245.52 563.814H1227.77C1227.01 558.895 1225 555.146 1221.71 552.568C1218.42 549.99 1213.99 548.697 1208.4 548.697C1200.48 548.697 1194.46 551.242 1190.35 556.317C1186.23 561.392 1184.17 568.815 1184.17 578.58C1184.17 588.017 1186.21 595.326 1190.31 600.474C1194.41 605.631 1200.24 608.209 1207.81 608.209C1213.27 608.209 1217.75 606.826 1221.24 604.043C1224.71 601.268 1226.97 597.291 1228.01 592.093H1245.64Z" fill="#1D1D1B"/>
<path d="M1311.07 578.576C1311.07 588.136 1313.21 595.56 1317.49 600.864C1321.77 606.151 1327.74 608.795 1335.43 608.795C1343.19 608.795 1349.22 606.151 1353.54 600.864C1357.85 595.56 1360.01 588.136 1360.01 578.576C1360.01 569.008 1357.85 561.585 1353.54 556.281C1349.22 550.993 1343.19 548.35 1335.43 548.35C1327.74 548.35 1321.77 550.985 1317.49 556.256C1313.21 561.535 1311.07 568.967 1311.07 578.576ZM1292.72 578.576C1292.72 564.523 1296.57 553.375 1304.27 545.133C1311.97 536.883 1322.36 532.757 1335.43 532.757C1348.49 532.757 1358.89 536.891 1366.64 545.157C1374.38 553.424 1378.25 564.564 1378.25 578.576C1378.25 592.581 1374.38 603.72 1366.64 611.987C1358.89 620.254 1348.49 624.387 1335.43 624.387C1322.36 624.387 1311.97 620.254 1304.27 611.987C1296.57 603.72 1292.72 592.581 1292.72 578.576Z" fill="#1D1D1B"/>
<path d="M1443.54 578.576C1443.54 588.136 1445.69 595.56 1449.96 600.864C1454.24 606.151 1460.22 608.795 1467.9 608.795C1475.66 608.795 1481.69 606.151 1486.02 600.864C1490.33 595.56 1492.49 588.136 1492.49 578.576C1492.49 569.008 1490.33 561.585 1486.02 556.281C1481.69 550.993 1475.66 548.35 1467.9 548.35C1460.22 548.35 1454.24 550.985 1449.96 556.256C1445.69 561.535 1443.54 568.967 1443.54 578.576ZM1425.19 578.576C1425.19 564.523 1429.05 553.375 1436.74 545.133C1444.45 536.883 1454.83 532.757 1467.9 532.757C1480.97 532.757 1491.37 536.891 1499.11 545.157C1506.86 553.424 1510.73 564.564 1510.73 578.576C1510.73 592.581 1506.86 603.72 1499.11 611.987C1491.37 620.254 1480.97 624.387 1467.9 624.387C1454.83 624.387 1444.45 620.254 1436.74 611.987C1429.05 603.72 1425.19 592.581 1425.19 578.576Z" fill="#1D1D1B"/>
<path d="M1561.48 621.963V535.007H1579.47V605.904H1622.18V621.963H1561.48Z" fill="#1D1D1B"/>
<path d="M1687.13 535.006H1669.13V621.962H1687.13V535.006Z" fill="#1D1D1B"/>
<path d="M1742.4 621.963V535.007H1761.22L1796.75 594.748V535.007H1814.51V621.963H1795.91L1760.15 562.222V621.963H1742.4Z" fill="#1D1D1B"/>
<path d="M1932.02 611.692C1928.77 616.054 1925.07 619.271 1920.93 621.317C1916.8 623.363 1911.94 624.386 1906.35 624.386C1894.12 624.386 1884.21 620.163 1876.62 611.724C1869.04 603.277 1865.25 592.187 1865.25 578.453C1865.25 564.604 1869.03 553.53 1876.6 545.222C1884.16 536.914 1894.24 532.756 1906.83 532.756C1917.8 532.756 1926.75 535.376 1933.68 540.581C1940.61 545.795 1944.73 552.973 1946.03 562.099H1927.68C1926.57 557.581 1924.31 554.135 1920.88 551.77C1917.46 549.413 1912.99 548.226 1907.49 548.226C1900.15 548.226 1894.4 550.894 1890.23 556.231C1886.05 561.559 1883.96 568.925 1883.96 578.338C1883.96 587.783 1886.14 595.174 1890.5 600.536C1894.85 605.888 1900.82 608.557 1908.43 608.557C1914.13 608.557 1918.9 606.887 1922.74 603.548C1926.59 600.2 1928.96 595.616 1929.87 589.789H1910.03V574.917H1946.27V621.964H1934.22L1932.02 611.692Z" fill="#1D1D1B"/>
<path d="M2067.08 595.107H2084.84C2085.51 599.862 2087.47 603.398 2090.72 605.698C2093.96 607.998 2098.65 609.152 2104.79 609.152C2110.02 609.152 2113.97 608.236 2116.62 606.378C2119.27 604.528 2120.6 601.794 2120.6 598.176C2120.6 592.897 2112.97 588.526 2097.73 585.064C2097.53 585.031 2097.35 584.99 2097.2 584.949C2096.8 584.868 2096.19 584.729 2095.35 584.54C2087.19 582.764 2081.38 580.775 2077.89 578.573C2074.79 576.601 2072.44 573.957 2070.82 570.634C2069.2 567.311 2068.39 563.382 2068.39 558.856C2068.39 550.393 2071.28 543.91 2077.06 539.4C2082.84 534.899 2091.19 532.648 2102.12 532.648C2112.34 532.648 2120.33 535.046 2126.09 539.851C2131.85 544.647 2134.89 551.416 2135.21 560.149H2117.92C2117.61 555.942 2115.99 552.734 2113.05 550.532C2110.12 548.33 2105.95 547.225 2100.52 547.225C2095.81 547.225 2092.17 548.142 2089.62 549.967C2087.06 551.801 2085.79 554.403 2085.79 557.792C2085.79 562.4 2090.76 565.846 2100.69 568.121C2103.39 568.752 2105.49 569.251 2106.99 569.603C2113.37 571.215 2117.9 572.468 2120.56 573.384C2123.23 574.285 2125.57 575.283 2127.55 576.388C2131.11 578.361 2133.77 580.963 2135.56 584.213C2137.34 587.454 2138.24 591.342 2138.24 595.876C2138.24 604.921 2135.17 611.943 2129.03 616.92C2122.89 621.888 2114.25 624.384 2103.07 624.384C2092.06 624.384 2083.43 621.847 2077.18 616.764C2070.92 611.69 2067.56 604.47 2067.08 595.107Z" fill="#1D1D1B"/>
<path d="M2203.29 578.576C2203.29 588.136 2205.44 595.56 2209.71 600.864C2213.99 606.151 2219.97 608.795 2227.65 608.795C2235.41 608.795 2241.44 606.151 2245.77 600.864C2250.08 595.56 2252.24 588.136 2252.24 578.576C2252.24 569.008 2250.08 561.585 2245.77 556.281C2241.44 550.993 2235.41 548.35 2227.65 548.35C2219.97 548.35 2213.99 550.985 2209.71 556.256C2205.44 561.535 2203.29 568.967 2203.29 578.576ZM2184.94 578.576C2184.94 564.523 2188.8 553.375 2196.49 545.133C2204.19 536.883 2214.58 532.757 2227.65 532.757C2240.72 532.757 2251.12 536.891 2258.86 545.157C2266.6 553.424 2270.48 564.564 2270.48 578.576C2270.48 592.581 2266.6 603.72 2258.86 611.987C2251.12 620.254 2240.72 624.387 2227.65 624.387C2214.58 624.387 2204.19 620.254 2196.49 611.987C2188.8 603.72 2184.94 592.581 2184.94 578.576Z" fill="#1D1D1B"/>
<path d="M2321.23 621.963V535.007H2339.22V605.904H2381.93V621.963H2321.23Z" fill="#1D1D1B"/>
<path d="M2425.62 534.767H2443.8V589.319C2443.8 596.047 2445.14 600.958 2447.83 604.044C2450.53 607.138 2454.8 608.676 2460.66 608.676C2466.6 608.676 2470.92 607.146 2473.64 604.076C2476.35 601.007 2477.71 596.088 2477.71 589.319V534.767H2495.71V591.259C2495.71 601.932 2492.7 610.117 2486.71 615.822C2480.71 621.535 2472.07 624.383 2460.78 624.383C2449.41 624.383 2440.71 621.543 2434.67 615.854C2428.63 610.166 2425.62 601.973 2425.62 591.259V534.767Z" fill="#1D1D1B"/>
<path d="M2567.95 621.963V550.525H2542V535.006H2611.74V550.525H2585.95V621.963H2567.95Z" fill="#1D1D1B"/>
<path d="M2677.22 535.006H2659.22V621.962H2677.22V535.006Z" fill="#1D1D1B"/>
<path d="M2747.03 578.576C2747.03 588.136 2749.17 595.56 2753.45 600.864C2757.73 606.151 2763.7 608.795 2771.39 608.795C2779.15 608.795 2785.18 606.151 2789.5 600.864C2793.82 595.56 2795.98 588.136 2795.98 578.576C2795.98 569.008 2793.82 561.585 2789.5 556.281C2785.18 550.993 2779.15 548.35 2771.39 548.35C2763.7 548.35 2757.73 550.985 2753.45 556.256C2749.17 561.535 2747.03 568.967 2747.03 578.576ZM2728.68 578.576C2728.68 564.523 2732.53 553.375 2740.23 545.133C2747.93 536.883 2758.32 532.757 2771.39 532.757C2784.45 532.757 2794.85 536.891 2802.6 545.157C2810.34 553.424 2814.21 564.564 2814.21 578.576C2814.21 592.581 2810.34 603.72 2802.6 611.987C2794.85 620.254 2784.45 624.387 2771.39 624.387C2758.32 624.387 2747.93 620.254 2740.23 611.987C2732.53 603.72 2728.68 592.581 2728.68 578.576Z" fill="#1D1D1B"/>
<path d="M2864.96 621.963V535.007H2883.79L2919.31 594.748V535.007H2937.07V621.963H2918.47L2882.71 562.222V621.963H2864.96Z" fill="#1D1D1B"/>
<path d="M2987.58 595.107H3005.34C3006.01 599.862 3007.98 603.398 3011.23 605.698C3014.47 607.998 3019.16 609.152 3025.3 609.152C3030.53 609.152 3034.47 608.236 3037.13 606.378C3039.78 604.528 3041.1 601.794 3041.1 598.176C3041.1 592.897 3033.47 588.526 3018.23 585.064C3018.04 585.031 3017.86 584.99 3017.7 584.949C3017.3 584.868 3016.7 584.729 3015.85 584.54C3007.7 582.764 3001.88 580.775 2998.39 578.573C2995.3 576.601 2992.94 573.957 2991.32 570.634C2989.7 567.311 2988.89 563.382 2988.89 558.856C2988.89 550.393 2991.78 543.91 2997.57 539.4C3003.35 534.899 3011.69 532.648 3022.63 532.648C3032.84 532.648 3040.83 535.046 3046.6 539.851C3052.36 544.647 3055.39 551.416 3055.71 560.149H3038.43C3038.12 555.942 3036.5 552.734 3033.56 550.532C3030.63 548.33 3026.45 547.225 3021.03 547.225C3016.31 547.225 3012.68 548.142 3010.12 549.967C3007.57 551.801 3006.29 554.403 3006.29 557.792C3006.29 562.4 3011.27 565.846 3021.2 568.121C3023.9 568.752 3025.99 569.251 3027.5 569.603C3033.88 571.215 3038.4 572.468 3041.07 573.384C3043.74 574.285 3046.07 575.283 3048.05 576.388C3051.61 578.361 3054.28 580.963 3056.07 584.213C3057.85 587.454 3058.74 591.342 3058.74 595.876C3058.74 604.921 3055.67 611.943 3049.53 616.92C3043.39 621.888 3034.75 624.384 3023.58 624.384C3012.57 624.384 3003.94 621.847 2997.68 616.764C2991.43 611.69 2988.06 604.47 2987.58 595.107Z" fill="#1D1D1B"/>
<defs>
<linearGradient id="paint0_linear_176_8" x1="1161.96" y1="245.794" x2="3064.35" y2="245.794" gradientUnits="userSpaceOnUse">
<stop stop-color="#3392D0"/>
<stop offset="1" stop-color="#273579"/>
</linearGradient>
<linearGradient id="paint1_linear_176_8" x1="1161.96" y1="245.794" x2="3064.35" y2="245.794" gradientUnits="userSpaceOnUse">
<stop stop-color="#3392D0"/>
<stop offset="1" stop-color="#273579"/>
</linearGradient>
<linearGradient id="paint2_linear_176_8" x1="1161.96" y1="245.793" x2="3064.35" y2="245.793" gradientUnits="userSpaceOnUse">
<stop stop-color="#3392D0"/>
<stop offset="1" stop-color="#273579"/>
</linearGradient>
<linearGradient id="paint3_linear_176_8" x1="1161.96" y1="245.792" x2="3064.35" y2="245.792" gradientUnits="userSpaceOnUse">
<stop stop-color="#3392D0"/>
<stop offset="1" stop-color="#273579"/>
</linearGradient>
<linearGradient id="paint4_linear_176_8" x1="1161.96" y1="245.794" x2="3064.35" y2="245.794" gradientUnits="userSpaceOnUse">
<stop stop-color="#3392D0"/>
<stop offset="1" stop-color="#273579"/>
</linearGradient>
<linearGradient id="paint5_linear_176_8" x1="1161.96" y1="245.793" x2="3064.35" y2="245.793" gradientUnits="userSpaceOnUse">
<stop stop-color="#3392D0"/>
<stop offset="1" stop-color="#273579"/>
</linearGradient>
<linearGradient id="paint6_linear_176_8" x1="-0.158211" y1="162.255" x2="638.908" y2="162.255" gradientUnits="userSpaceOnUse">
<stop stop-color="#3392D0"/>
<stop offset="1" stop-color="#273579"/>
</linearGradient>
<linearGradient id="paint7_linear_176_8" x1="131.978" y1="318.899" x2="979.688" y2="318.899" gradientUnits="userSpaceOnUse">
<stop stop-color="#3392D0"/>
<stop offset="1" stop-color="#273579"/>
</linearGradient>
</defs>
</svg>
