<svg width="87" height="57" viewBox="0 0 87 57" fill="none" xmlns="http://www.w3.org/2000/svg">
<path d="M55.2556 0.0503483L22.7607 0.277186C22.4781 0.277186 22.1956 0.277186 21.8565 0.277186C13.097 0.390605 6.99361 3.33948 2.98119 9.35067C-0.748656 15.4186 -1.42682 22.8475 3.54632 28.7452C7.89781 23.528 9.08458 18.8778 7.21966 13.774C6.0894 15.135 5.12868 16.6095 4.16796 18.1406C3.20724 11.9026 6.48499 4.36026 17.8441 4.24684L44.6312 4.02C41.3534 9.29396 34.5719 20.4657 31.1811 25.9098C39.7146 25.9098 41.1839 26.0799 43.4444 22.6774C46.4396 17.7436 53.3907 6.28837 55.9338 2.03517C56.2163 1.5815 56.4989 1.07111 56.4989 0.61744C56.4989 0.277184 55.9338 0.0503483 55.2556 0.0503483Z" fill="white"/>
<path d="M71.7914 0C61.9712 0.376119 55.8992 6.24358 56.4989 13.9916C56.9487 19.7086 60.0222 24.523 68.2681 30.3152L70.6669 32.0454L71.7164 32.7224C77.9384 37.1606 79.2127 40.32 79.5126 43.7803C80.2622 53.5594 69.3176 56.4931 62.0462 54.2364C61.2216 53.9355 60.247 53.4089 59.4224 52.8071C59.2725 52.6567 59.1226 52.5815 58.9727 52.431C58.1481 51.8292 57.3984 51.077 56.8737 50.4C55.2995 48.5946 53.5753 46.1874 52.9756 44.3821C54.6248 45.8865 56.199 47.0901 57.5484 48.068C59.7223 42.1254 56.6488 35.6561 51.8511 33.3994C47.6532 38.8155 49.7522 46.2627 54.25 51.077H38.4327L38.3577 51.0018L37.833 50.4L36.0339 48.6698H39.3323C39.857 48.6698 40.3068 48.2185 40.3068 47.6919C40.3068 47.1654 39.857 46.714 39.3323 46.714H34.0848L32.5856 45.2095C33.2602 44.3068 33.71 43.2537 33.8599 42.2006H35.9589L39.6321 45.8866C40.0069 46.2627 40.6066 46.2627 41.0564 45.8866C41.3563 45.5104 41.3563 44.9086 41.0564 44.5325L38.7326 42.2006H41.956C42.4807 42.2006 42.9305 41.7492 42.9305 41.2227C42.9305 40.6961 42.4807 40.2448 41.956 40.2448H38.6576L40.9815 37.988C41.3563 37.6119 41.3563 36.9349 41.0564 36.5588C40.6066 36.1827 40.0069 36.1827 39.6321 36.5588L35.9589 40.2448H33.8599C33.71 39.1916 33.2602 38.2137 32.5856 37.311L34.0848 35.7313H39.3323C39.857 35.7313 40.3068 35.3552 40.3068 34.7534C40.3068 34.2268 39.857 33.8507 39.3323 33.8507H36.0339L38.3577 31.5188C38.7326 31.1427 38.7326 30.5409 38.3577 30.1648C37.9829 29.7886 37.3832 29.7886 37.0084 30.1648L34.6845 32.4967V29.1869C34.6845 28.6603 34.2348 28.2089 33.71 28.2089C33.1853 28.2089 32.7355 28.6603 32.7355 29.1869V34.3773L31.2362 35.957C30.3367 35.28 29.2872 34.8286 28.2377 34.6782V32.4967L31.9109 28.8107C32.2857 28.4346 32.2857 27.8328 31.9109 27.4567C31.5361 27.0806 30.9364 27.0806 30.5616 27.4567L28.2377 29.7886V26.4788C28.2377 25.9522 27.8629 25.5761 27.2632 25.5761C26.7384 25.5761 26.3636 25.9522 26.3636 26.4788V29.7886L24.0398 27.4567C23.6649 27.0806 23.0652 27.0806 22.6904 27.4567C22.3156 27.8328 22.3156 28.4346 22.6904 28.8107L26.3636 32.4967V34.6782C25.3141 34.8286 24.2647 35.28 23.3651 35.957L21.8658 34.3773V29.1869C21.8658 28.6603 21.416 28.2089 20.8913 28.2089C20.3665 28.2089 19.9168 28.6603 19.9168 29.1869V32.4967L17.5929 30.1648C17.2181 29.7886 16.6184 29.7886 16.2436 30.1648C16.0936 30.3152 16.0187 30.4657 15.9437 30.6913V30.8418C15.9437 31.0674 16.0187 31.2931 16.2436 31.5188L18.5674 33.8507H15.2691C14.7443 33.8507 14.2945 34.2268 14.2945 34.7534C14.2945 35.3552 14.7443 35.7313 15.2691 35.7313H20.4415L22.0157 37.311C21.3411 38.2137 20.8913 39.1916 20.8163 40.2448H18.6424L14.9692 36.5588C14.5944 36.1827 13.9947 36.1827 13.5449 36.5588C13.245 36.9349 13.245 37.6119 13.5449 37.9128L15.8688 40.2448H12.6453C12.1206 40.2448 11.6708 40.6961 11.6708 41.2227C11.6708 41.7492 12.1206 42.2006 12.6453 42.2006H15.8688L13.5449 44.5325C13.245 44.9086 13.245 45.5104 13.5449 45.8866C13.9947 46.2627 14.5944 46.2627 14.9692 45.8866L18.6424 42.2006H20.8163C20.8163 42.6519 20.9663 43.1785 21.1162 43.6298L21.7909 42.9528C21.1912 40.997 21.7159 38.7403 23.2152 37.1606C25.4641 34.9791 29.0623 34.9791 31.3112 37.1606C33.5601 39.4173 33.5601 43.1033 31.3112 45.36C29.8119 46.8645 27.563 47.3158 25.614 46.714L24.9393 47.391C25.3891 47.6167 25.8389 47.6919 26.3636 47.7671V49.9486L25.8389 50.4L25.2392 51.077H20.2916L25.539 45.8113C27.2632 46.4883 29.2872 46.1122 30.7115 44.683C31.9859 43.4042 32.4356 41.5988 31.9859 40.0191L28.3876 43.6298L26.2887 42.9528L25.7639 42.8024L25.0143 40.3952L24.9393 40.1695L28.5376 36.5588C26.8884 36.1074 25.0893 36.5588 23.8149 37.8376C22.5405 39.1164 22.1657 41.0722 22.6155 42.7271L15.2691 50.4752L15.0442 50.6257L12.3455 53.4842V54.9886H14.7443C15.8688 55.0639 16.9182 55.0639 17.8928 55.0639C19.392 55.0639 20.6664 55.0639 21.6409 55.0639C21.8658 55.0639 22.7654 55.0639 22.9153 55.0639C23.2901 55.0639 25.9888 55.0639 26.5135 55.0639C27.1882 55.0639 27.8629 55.0639 28.5376 55.0639C29.1373 55.0639 29.662 55.0639 30.1867 55.1391C31.0113 55.1391 31.9109 55.1391 32.7355 55.1391C33.2602 55.1391 34.6096 55.1391 34.6096 55.1391C43.0055 55.2143 51.2514 55.3647 60.0221 55.2143C63.0207 56.4931 66.3191 56.794 69.4675 56.4931C73.5905 56.0418 78.0883 54.5373 80.9369 52.3558C85.7346 48.8203 86.934 43.8555 86.5592 39.7934C86.0344 33.0985 82.6611 28.2842 73.6655 22.191L71.5665 20.7618C65.3445 16.5492 63.5454 14.1421 63.3205 10.9075C62.9457 6.6197 65.8693 3.4603 71.1167 3.30985C75.6895 3.1594 77.9384 5.19045 79.0628 6.46925C80.712 8.27462 81.2368 10.4561 81.2368 11.0579C81.3117 11.8854 81.5366 12.3367 82.0614 12.3367C82.6611 12.2615 82.811 11.7349 82.6611 10.1552C82.2862 4.66388 82.3612 2.63283 82.2862 1.65492C82.2862 1.20358 81.9114 0.977912 81.2368 0.902688C79.5876 0.526569 77.0388 0 73.3656 0C72.8409 0 72.3161 0 71.7914 0ZM28.2377 49.9486V47.7671C29.2872 47.6167 30.3367 47.2406 31.2362 46.5636L32.7355 48.068V51.077H29.3622L28.2377 49.9486ZM34.6845 50.0239L35.734 51.077H34.6845V50.0239Z" fill="white"/>
</svg>
